{
.appVersion = "1057";
copyright = "Copyright 2017 Google Inc. All Rights Reserved.";
customParameters = (
{
name = glyphOrder;
value = (
.notdef,
NULL,
CR,
space,
uni00A0,
uni1700,
uni1701,
uni1702,
uni1703,
uni1704,
uni1705,
uni1706,
uni1707,
uni1708,
uni1709,
uni170A,
uni170B,
uni170C,
uni170E,
uni170F,
uni1710,
uni1711,
uni1712,
uni1713,
uni1714,
uni1735,
uni1736,
uni200B,
uni200C,
uni200D,
uni25CC
);
},
{
name = description;
value = "Designed by Monotype design team.";
},
{
name = license;
value = "This Font Software is licensed under the SIL Open Font License, Version 1.1. This Font Software is distributed on an \"AS IS\" BASIS, WITHOUT WARRANTIES OR CONDITIONS OF ANY KIND, either express or implied. See the SIL Open Font License for the specific language, permissions and limitations governing your use of this Font Software.";
},
{
name = licenseURL;
value = "http://scripts.sil.org/OFL";
},
{
name = vendorID;
value = GOOG;
},
{
name = unicodeRanges;
value = (
0,
1,
31,
45,
84
);
},
{
name = trademark;
value = "Noto is a trademark of Google Inc.";
},
{
name = "Has WWS Names";
value = 1;
},
{
name = versionString;
value = "Version 2.000";
},
{
name = fsType;
value = (
);
},
{
name = codePageRanges;
value = (
"1252"
);
}
);
date = "2017-05-03 20:11:34 +0000";
designer = "Monotype Design Team";
designerURL = "http://www.monotype.com/studio";
disablesAutomaticAlignment = 1;
disablesNiceNames = 1;
familyName = "Noto Sans Tagalog";
fontMaster = (
{
alignmentZones = (
"{1069, 15}",
"{714, 15}",
"{536, 15}",
"{0, -15}",
"{-293, -15}"
);
ascender = 1069;
capHeight = 714;
customParameters = (
{
name = typoAscender;
value = 1069;
},
{
name = typoDescender;
value = -293;
},
{
name = typoLineGap;
value = 0;
},
{
name = winAscent;
value = 1069;
},
{
name = winDescent;
value = 293;
},
{
name = hheaAscender;
value = 1069;
},
{
name = hheaDescender;
value = -293;
},
{
name = hheaLineGap;
value = 0;
},
{
name = underlinePosition;
value = -100;
},
{
name = underlineThickness;

glyphs = (
{
glyphname = .notdef;
lastChange = "2017-09-13 18:20:42 +0000";
layers = (
{
layerId = UUID0;
paths = (
{
closed = 1;
nodes = (
"505 0 LINE",
"505 714 LINE",
"94 714 LINE",
"94 0 LINE"
);
},
{
closed = 1;
nodes = (
"145 663 LINE",
"454 663 LINE",
"454 51 LINE",
"145 51 LINE"
);
}
);
width = 600;
}
);
},
{
glyphname = uni1700;
lastChange = "2017-09-13 18:20:42 +0000";
layers = (
{
layerId = UUID0;
paths = (
{
closed = 1;
nodes = (
"472 0 OFFCURVE",
"576 199 OFFCURVE",
"663 343 CURVE SMOOTH",
"734 461 LINE SMOOTH",
"780 537 OFFCURVE",
"816 566 OFFCURVE",
"862 566 CURVE SMOOTH",
"899 566 OFFCURVE",
"929 551 OFFCURVE",
"947 506 CURVE",
"1010 533 LINE",
"984 596 OFFCURVE",
"933 634 OFFCURVE",
"864 634 CURVE SMOOTH",
"778 634 OFFCURVE",
"727 588 OFFCURVE",
"640 444 CURVE SMOOTH",
"594 368 LINE SMOOTH",
"504 219 OFFCURVE",
"415 68 OFFCURVE",
"324 68 CURVE SMOOTH",
"287 68 OFFCURVE",
"267 103 OFFCURVE",
"267 176 CURVE SMOOTH",
"267 253 OFFCURVE",
"313 392 OFFCURVE",
"313 504 CURVE SMOOTH",
"313 518 LINE",
"453 518 LINE",
"453 586 LINE",
"306 586 LINE",
"279 706 OFFCURVE",
"208 745 OFFCURVE",
"106 779 CURVE",
"90 712 LINE",
"179 689 OFFCURVE",
"214 646 OFFCURVE",
"230 586 CURVE",
"84 586 LINE",
"84 518 LINE",
"237 518 LINE",
"237 494 OFFCURVE",
"236 468 OFFCURVE",
"233 443 CURVE",
"84 443 LINE",
"84 375 LINE",
"222 375 LINE",
"209 314 OFFCURVE",
"190 241 OFFCURVE",
"190 168 CURVE SMOOTH",
"190 58 OFFCURVE",
"248 0 OFFCURVE",
"318 0 CURVE SMOOTH"
);
}
);
width = 1014;
}
);
unicode = 1700;
},
{
glyphname = uni1701;
lastChange = "2017-09-13 18:20:42 +0000";
layers = (
{
layerId = UUID0;
paths = (
{
closed = 1;
nodes = (
"289 78 OFFCURVE",
"364 152 OFFCURVE",
"406 229 CURVE",
"421 197 OFFCURVE",
"451 154 OFFCURVE",
"475 126 CURVE",
"528 159 OFFCURVE",
"566 208 OFFCURVE",
"591 240 CURVE",
"631 157 OFFCURVE",
"690 78 OFFCURVE",
"805 78 CURVE SMOOTH",
"861 78 OFFCURVE",
"891 93 OFFCURVE",
"933 115 CURVE",
"901 175 LINE",
"868 157 OFFCURVE",
"848 146 OFFCURVE",
"804 146 CURVE SMOOTH",
"706 146 OFFCURVE",
"648 244 OFFCURVE",
"627 362 CURVE",
"581 362 LINE",
"565 322 OFFCURVE",
"521 247 OFFCURVE",
"488 224 CURVE",
"464 255 OFFCURVE",
"443 298 OFFCURVE",
"428 362 CURVE",
"382 362 LINE",
"347 218 OFFCURVE",
"271 146 OFFCURVE",
"180 146 CURVE SMOOTH",
"135 146 OFFCURVE",
"97 155 OFFCURVE",
"71 172 CURVE",
"35 114 LINE",
"71 91 OFFCURVE",
"123 78 OFFCURVE",
"180 78 CURVE SMOOTH"
);
},
{
closed = 1;
nodes = (
"371 425 OFFCURVE",
"465 451 OFFCURVE",
"531 472 CURVE SMOOTH",
"583 488 OFFCURVE",
"650 511 OFFCURVE",
"712 511 CURVE SMOOTH",
"811 511 OFFCURVE",
"867 484 OFFCURVE",
"936 433 CURVE",
"978 487 LINE",
"896 547 OFFCURVE",
"823 579 OFFCURVE",
"725 579 CURVE SMOOTH",
"645 579 OFFCURVE",
"570 556 OFFCURVE",
"510 537 CURVE SMOOTH",
"451 518 OFFCURVE",
"368 493 OFFCURVE",
"285 493 CURVE SMOOTH",
"201 493 OFFCURVE",
"150 516 OFFCURVE",
"70 573 CURVE",
"32 517 LINE",
"113 457 OFFCURVE",
"186 425 OFFCURVE",
"283 425 CURVE SMOOTH"
);
}
);
width = 1011;
}
);
unicode = 1701;
},
{
glyphname = uni1702;
lastChange = "2017-09-13 18:20:42 +0000";
layers = (
{
layerId = UUID0;
paths = (
{
closed = 1;
nodes = (
"385 0 OFFCURVE",
"487 74 OFFCURVE",
"487 203 CURVE SMOOTH",
"487 282 OFFCURVE",
"441 339 OFFCURVE",
"380 356 CURVE",
"440 383 OFFCURVE",
"468 429 OFFCURVE",
"468 489 CURVE SMOOTH",
"468 578 OFFCURVE",
"400 634 OFFCURVE",
"282 634 CURVE SMOOTH",
"214 634 OFFCURVE",
"168 625 OFFCURVE",
"108 597 CURVE",
"136 534 LINE",
"170 551 OFFCURVE",
"224 566 OFFCURVE",
"278 566 CURVE SMOOTH",
"359 566 OFFCURVE",
"391 529 OFFCURVE",
"391 485 CURVE SMOOTH",
"391 436 OFFCURVE",
"350 379 OFFCURVE",
"244 379 CURVE SMOOTH",
"198 379 LINE",
"198 311 LINE",
"267 311 LINE SMOOTH",
"364 311 OFFCURVE",
"411 271 OFFCURVE",
"411 202 CURVE SMOOTH",
"411 138 OFFCURVE",
"359 68 OFFCURVE",
"242 68 CURVE SMOOTH",
"193 68 OFFCURVE",
"122 76 OFFCURVE",
"73 98 CURVE",
"48 33 LINE",
"101 13 OFFCURVE",
"157 0 OFFCURVE",
"243 0 CURVE SMOOTH"
);
}
);
width = 535;
}
);
unicode = 1702;
},
{
glyphname = uni1703;
lastChange = "2017-09-13 18:20:42 +0000";
layers = (
{
layerId = UUID0;
paths = (
{
closed = 1;
nodes = (
"297 21 OFFCURVE",
"343 33 OFFCURVE",
"374 46 CURVE SMOOTH",
"637 156 LINE SMOOTH",
"660 166 OFFCURVE",
"713 181 OFFCURVE",
"747 181 CURVE SMOOTH",
"806 181 OFFCURVE",
"849 166 OFFCURVE",
"902 138 CURVE",
"933 199 LINE",
"871 232 OFFCURVE",
"817 249 OFFCURVE",
"743 249 CURVE SMOOTH",
"699 249 OFFCURVE",
"641 231 OFFCURVE",
"610 218 CURVE SMOOTH",
"536 187 LINE",
"536 469 LINE",
"637 512 LINE SMOOTH",
"660 522 OFFCURVE",
"713 537 OFFCURVE",
"747 537 CURVE SMOOTH",
"806 537 OFFCURVE",
"849 522 OFFCURVE",
"902 494 CURVE",
"933 555 LINE",
"871 588 OFFCURVE",
"817 605 OFFCURVE",
"743 605 CURVE SMOOTH",
"699 605 OFFCURVE",
"641 587 OFFCURVE",
"610 574 CURVE SMOOTH",
"347 464 LINE SMOOTH",
"324 454 OFFCURVE",
"288 445 OFFCURVE",
"255 445 CURVE SMOOTH",
"185 445 OFFCURVE",
"140 472 OFFCURVE",
"95 515 CURVE",
"51 462 LINE",
"112 410 OFFCURVE",
"166 377 OFFCURVE",
"253 377 CURVE SMOOTH",
"297 377 OFFCURVE",
"343 389 OFFCURVE",
"374 402 CURVE SMOOTH",
"459 437 LINE",
"459 155 LINE",
"347 108 LINE SMOOTH",
"324 98 OFFCURVE",
"288 89 OFFCURVE",
"255 89 CURVE SMOOTH",
"185 89 OFFCURVE",
"140 116 OFFCURVE",
"95 159 CURVE",
"51 106 LINE",
"112 54 OFFCURVE",
"166 21 OFFCURVE",
"253 21 CURVE SMOOTH"
);
}
);
width = 984;
}
);
unicode = 1703;
},
{
glyphname = uni1704;
lastChange = "2017-09-13 18:20:42 +0000";
layers = (
{
layerId = UUID0;
paths = (
{
closed = 1;
nodes = (
"385 0 OFFCURVE",
"487 74 OFFCURVE",
"487 203 CURVE SMOOTH",
"487 282 OFFCURVE",
"441 339 OFFCURVE",
"380 356 CURVE",
"440 383 OFFCURVE",
"468 429 OFFCURVE",
"468 489 CURVE SMOOTH",
"468 500 OFFCURVE",
"467 510 OFFCURVE",
"465 520 CURVE",
"484 530 OFFCURVE",
"508 537 OFFCURVE",
"527 537 CURVE SMOOTH",
"583 537 OFFCURVE",
"610 495 OFFCURVE",
"610 351 CURVE SMOOTH",
"610 207 LINE SMOOTH",
"610 84 OFFCURVE",
"637 0 OFFCURVE",
"801 0 CURVE SMOOTH",
"811 0 LINE",
"811 68 LINE",
"698 68 OFFCURVE",
"687 110 OFFCURVE",
"687 207 CURVE SMOOTH",
"687 351 LINE SMOOTH",
"687 522 OFFCURVE",
"647 605 OFFCURVE",
"536 605 CURVE SMOOTH",
"505 605 OFFCURVE",
"471 599 OFFCURVE",
"436 578 CURVE",
"405 614 OFFCURVE",
"353 634 OFFCURVE",
"282 634 CURVE SMOOTH",
"214 634 OFFCURVE",
"168 625 OFFCURVE",
"108 597 CURVE",
"136 534 LINE",
"170 551 OFFCURVE",
"224 566 OFFCURVE",
"278 566 CURVE SMOOTH",
"359 566 OFFCURVE",
"391 529 OFFCURVE",
"391 485 CURVE SMOOTH",
"391 436 OFFCURVE",
"350 379 OFFCURVE",
"244 379 CURVE SMOOTH",
"198 379 LINE",
"198 311 LINE",
"267 311 LINE SMOOTH",
"364 311 OFFCURVE",
"411 271 OFFCURVE",
"411 202 CURVE SMOOTH",
"411 138 OFFCURVE",
"359 68 OFFCURVE",
"242 68 CURVE SMOOTH",
"193 68 OFFCURVE",
"122 76 OFFCURVE",
"73 98 CURVE",
"48 33 LINE",
"101 13 OFFCURVE",
"157 0 OFFCURVE",
"243 0 CURVE SMOOTH"
);
}
);
width = 837;
}
);
unicode = 1704;
},
{
glyphname = uni1705;
lastChange = "2017-09-13 18:20:42 +0000";
layers = (
{
layerId = UUID0;
paths = (
{
closed = 1;
nodes = (
"150 0 LINE",
"143 19 OFFCURVE",
"141 33 OFFCURVE",
"141 44 CURVE SMOOTH",
"141 67 OFFCURVE",
"153 85 OFFCURVE",
"179 85 CURVE SMOOTH",
"230 85 OFFCURVE",
"252 64 OFFCURVE",
"332 64 CURVE SMOOTH",
"427 64 OFFCURVE",
"513 131 OFFCURVE",
"524 257 CURVE",
"594 257 OFFCURVE",
"649 279 OFFCURVE",
"701 331 CURVE SMOOTH",
"737 367 OFFCURVE",
"760 380 OFFCURVE",
"797 380 CURVE SMOOTH",
"848 380 OFFCURVE",
"885 341 OFFCURVE",
"885 284 CURVE SMOOTH",
"885 198 OFFCURVE",
"822 143 OFFCURVE",
"728 121 CURVE",
"745 57 LINE",
"851 76 OFFCURVE",
"957 147 OFFCURVE",
"957 283 CURVE SMOOTH",
"957 379 OFFCURVE",
"897 448 OFFCURVE",
"797 448 CURVE SMOOTH",
"741 448 OFFCURVE",
"701 426 OFFCURVE",
"652 381 CURVE SMOOTH",
"605 337 OFFCURVE",
"574 325 OFFCURVE",
"524 325 CURVE",
"513 431 OFFCURVE",
"455 511 OFFCURVE",
"332 511 CURVE SMOOTH",
"286 511 OFFCURVE",
"254 499 OFFCURVE",
"227 485 CURVE SMOOTH",
"209 476 OFFCURVE",
"188 466 OFFCURVE",
"170 466 CURVE SMOOTH",
"131 466 OFFCURVE",
"124 487 OFFCURVE",
"124 503 CURVE SMOOTH",
"124 535 OFFCURVE",
"153 554 OFFCURVE",
"199 584 CURVE",
"161 641 LINE",
"97 598 OFFCURVE",
"52 560 OFFCURVE",
"52 501 CURVE SMOOTH",
"52 430 OFFCURVE",
"100 398 OFFCURVE",
"161 398 CURVE SMOOTH",
"243 398 OFFCURVE",
"254 443 OFFCURVE",
"338 443 CURVE SMOOTH",
"414 443 OFFCURVE",
"447 390 OFFCURVE",
"447 288 CURVE SMOOTH",
"447 190 OFFCURVE",
"410 132 OFFCURVE",
"327 132 CURVE SMOOTH",
"274 132 OFFCURVE",
"240 153 OFFCURVE",
"176 153 CURVE SMOOTH",
"98 153 OFFCURVE",
"69 100 OFFCURVE",
"69 56 CURVE SMOOTH",
"69 36 OFFCURVE",
"72 18 OFFCURVE",
"79 0 CURVE"
);
}
);
width = 1011;
}
);
unicode = 1705;
},
{
glyphname = uni1706;
lastChange = "2017-09-13 18:20:42 +0000";
layers = (
{
layerId = UUID0;
paths = (
{
closed = 1;
nodes = (
"221 0 LINE",
"278 391 OFFCURVE",
"577 563 OFFCURVE",
"778 563 CURVE SMOOTH",
"834 563 OFFCURVE",
"884 550 OFFCURVE",
"914 536 CURVE",
"943 598 LINE",
"895 620 OFFCURVE",
"837 631 OFFCURVE",
"778 631 CURVE SMOOTH",
"619 631 OFFCURVE",
"483 559 OFFCURVE",
"372 458 CURVE SMOOTH",
"270 365 OFFCURVE",
"213 341 OFFCURVE",
"173 341 CURVE SMOOTH",
"147 341 OFFCURVE",
"136 353 OFFCURVE",
"136 371 CURVE SMOOTH",
"136 384 OFFCURVE",
"142 394 OFFCURVE",
"152 406 CURVE",
"100 450 LINE",
"78 426 OFFCURVE",
"68 398 OFFCURVE",
"68 368 CURVE SMOOTH",
"68 311 OFFCURVE",
"107 273 OFFCURVE",
"168 273 CURVE SMOOTH",
"191 273 OFFCURVE",
"214 278 OFFCURVE",
"242 291 CURVE",
"189 200 OFFCURVE",
"154 99 OFFCURVE",
"142 0 CURVE"
);
}
);
width = 975;
}
);
unicode = 1706;
},
{
glyphname = uni1707;
lastChange = "2017-09-13 18:20:42 +0000";
layers = (
{
layerId = UUID0;
paths = (
{
closed = 1;
nodes = (
"390 80 OFFCURVE",
"478 106 OFFCURVE",
"550 126 CURVE SMOOTH",
"607 142 OFFCURVE",
"669 164 OFFCURVE",
"731 164 CURVE SMOOTH",
"830 164 OFFCURVE",
"886 137 OFFCURVE",
"955 86 CURVE",
"997 140 LINE",
"915 200 OFFCURVE",
"842 232 OFFCURVE",
"744 232 CURVE SMOOTH",
"664 232 OFFCURVE",
"593 210 OFFCURVE",
"527 190 CURVE SMOOTH",
"437 163 OFFCURVE",
"370 148 OFFCURVE",
"291 148 CURVE SMOOTH",
"211 148 OFFCURVE",
"171 189 OFFCURVE",
"171 253 CURVE SMOOTH",
"171 330 OFFCURVE",
"210 397 OFFCURVE",
"274 436 CURVE",
"204 462 LINE",
"138 411 OFFCURVE",
"94 337 OFFCURVE",
"94 251 CURVE SMOOTH",
"94 148 OFFCURVE",
"171 80 OFFCURVE",
"290 80 CURVE SMOOTH"
);
},
{
closed = 1;
nodes = (
"390 425 OFFCURVE",
"484 451 OFFCURVE",
"550 472 CURVE SMOOTH",
"602 488 OFFCURVE",
"669 511 OFFCURVE",
"731 511 CURVE SMOOTH",
"830 511 OFFCURVE",
"886 484 OFFCURVE",
"955 433 CURVE",
"997 487 LINE",
"915 547 OFFCURVE",
"842 579 OFFCURVE",
"744 579 CURVE SMOOTH",
"664 579 OFFCURVE",
"589 556 OFFCURVE",
"529 537 CURVE SMOOTH",
"470 518 OFFCURVE",
"387 493 OFFCURVE",
"304 493 CURVE SMOOTH",
"220 493 OFFCURVE",
"169 516 OFFCURVE",
"89 573 CURVE",
"51 517 LINE",
"132 457 OFFCURVE",
"205 425 OFFCURVE",
"302 425 CURVE SMOOTH"
);
}
);
width = 1048;
}
);
unicode = 1707;
},
{
glyphname = uni1708;
lastChange = "2017-09-13 18:20:42 +0000";
layers = (
{
layerId = UUID0;
paths = (
{
closed = 1;
nodes = (
"420 -17 OFFCURVE",
"450 9 OFFCURVE",
"477 28 CURVE SMOOTH",
"510 51 OFFCURVE",
"534 73 OFFCURVE",
"534 104 CURVE SMOOTH",
"534 136 OFFCURVE",
"498 150 OFFCURVE",
"462 166 CURVE SMOOTH",
"448 172 OFFCURVE",
"434 176 OFFCURVE",
"434 179 CURVE SMOOTH",
"434 182 OFFCURVE",
"450 190 OFFCURVE",
"466 200 CURVE SMOOTH",
"494 218 OFFCURVE",
"534 240 OFFCURVE",
"534 270 CURVE SMOOTH",
"534 303 OFFCURVE",
"496 318 OFFCURVE",
"460 332 CURVE SMOOTH",
"446 338 OFFCURVE",
"434 343 OFFCURVE",
"434 346 CURVE SMOOTH",
"434 348 OFFCURVE",
"440 352 OFFCURVE",
"449 357 CURVE SMOOTH",
"508 390 OFFCURVE",
"520 409 OFFCURVE",
"520 431 CURVE SMOOTH",
"520 456 OFFCURVE",
"499 469 OFFCURVE",
"486 482 CURVE SMOOTH",
"471 497 OFFCURVE",
"442 515 OFFCURVE",
"442 559 CURVE SMOOTH",
"442 565 LINE",
"602 554 OFFCURVE",
"699 401 OFFCURVE",
"699 219 CURVE SMOOTH",
"699 135 OFFCURVE",
"691 83 OFFCURVE",
"664 0 CURVE",
"744 0 LINE",
"769 69 OFFCURVE",
"777 151 OFFCURVE",
"777 218 CURVE SMOOTH",
"777 496 OFFCURVE",
"597 634 OFFCURVE",
"425 634 CURVE SMOOTH",
"253 634 OFFCURVE",
"74 496 OFFCURVE",
"74 218 CURVE SMOOTH",
"74 151 OFFCURVE",
"81 69 OFFCURVE",
"106 0 CURVE",
"186 0 LINE",
"159 83 OFFCURVE",
"151 134 OFFCURVE",
"151 219 CURVE SMOOTH",
"151 387 OFFCURVE",
"231 528 OFFCURVE",
"374 560 CURVE",
"374 557 LINE SMOOTH",
"374 496 OFFCURVE",
"404 461 OFFCURVE",
"432 442 CURVE SMOOTH",
"441 436 OFFCURVE",
"442 434 OFFCURVE",
"442 432 CURVE SMOOTH",
"442 428 OFFCURVE",
"425 421 OFFCURVE",
"412 413 CURVE SMOOTH",
"382 394 OFFCURVE",
"353 378 OFFCURVE",
"353 345 CURVE SMOOTH",
"353 300 OFFCURVE",
"388 290 OFFCURVE",
"424 276 CURVE SMOOTH",
"436 271 OFFCURVE",
"442 268 OFFCURVE",
"442 264 CURVE SMOOTH",
"442 260 OFFCURVE",
"427 255 OFFCURVE",
"412 246 CURVE SMOOTH",
"400 239 OFFCURVE",
"353 217 OFFCURVE",
"353 178 CURVE SMOOTH",
"353 132 OFFCURVE",
"389 123 OFFCURVE",
"424 109 CURVE SMOOTH",
"436 104 OFFCURVE",
"442 99 OFFCURVE",
"442 94 CURVE SMOOTH",
"442 90 OFFCURVE",
"441 85 OFFCURVE",
"426 75 CURVE SMOOTH",
"401 58 OFFCURVE",
"360 29 OFFCURVE",
"328 -32 CURVE",
"392 -66 LINE"
);
}
);
width = 850;
}
);
unicode = 1708;
},
{
glyphname = uni1709;
lastChange = "2017-09-13 18:20:42 +0000";
layers = (
{
layerId = UUID0;
paths = (
{
closed = 1;
nodes = (
"503 0 OFFCURVE",
"621 206 OFFCURVE",
"706 340 CURVE",
"736 300 OFFCURVE",
"768 243 OFFCURVE",
"789 202 CURVE",
"852 235 LINE",
"828 284 OFFCURVE",
"781 360 OFFCURVE",
"746 404 CURVE",
"780 461 LINE SMOOTH",
"825 537 OFFCURVE",
"860 566 OFFCURVE",
"906 566 CURVE SMOOTH",
"946 566 OFFCURVE",
"976 550 OFFCURVE",
"993 506 CURVE",
"1056 533 LINE",
"1030 596 OFFCURVE",
"979 634 OFFCURVE",
"910 634 CURVE SMOOTH",
"830 634 OFFCURVE",
"780 590 OFFCURVE",
"719 492 CURVE SMOOTH",
"632 353 OFFCURVE",
"581 273 OFFCURVE",
"532 208 CURVE SMOOTH",
"468 124 OFFCURVE",
"405 68 OFFCURVE",
"332 68 CURVE SMOOTH",
"294 68 OFFCURVE",
"271 95 OFFCURVE",
"271 144 CURVE SMOOTH",
"271 195 OFFCURVE",
"276 228 OFFCURVE",
"288 280 CURVE SMOOTH",
"293 302 OFFCURVE",
"301 336 OFFCURVE",
"301 364 CURVE SMOOTH",
"301 416 OFFCURVE",
"275 442 OFFCURVE",
"199 442 CURVE SMOOTH",
"58 442 LINE",
"58 374 LINE",
"224 374 LINE",
"224 353 OFFCURVE",
"223 334 OFFCURVE",
"218 311 CURVE SMOOTH",
"208 264 OFFCURVE",
"194 197 OFFCURVE",
"194 151 CURVE SMOOTH",
"194 61 OFFCURVE",
"236 0 OFFCURVE",
"327 0 CURVE SMOOTH"
);
}
);
width = 1070;
}
);
unicode = 1709;
},
{
glyphname = uni170A;
lastChange = "2017-09-13 18:20:42 +0000";
layers = (
{
layerId = UUID0;
paths = (
{
closed = 1;
nodes = (
"318 0 OFFCURVE",
"375 30 OFFCURVE",
"422 69 CURVE",
"453 31 OFFCURVE",
"488 0 OFFCURVE",
"565 0 CURVE SMOOTH",
"694 0 OFFCURVE",
"787 108 OFFCURVE",
"787 270 CURVE SMOOTH",
"787 448 OFFCURVE",
"652 634 OFFCURVE",
"477 634 CURVE SMOOTH",
"225 634 OFFCURVE",
"64 380 OFFCURVE",
"64 189 CURVE SMOOTH",
"64 64 OFFCURVE",
"136 0 OFFCURVE",
"239 0 CURVE SMOOTH"
);
},
{
closed = 1;
nodes = (
"178 68 OFFCURVE",
"141 114 OFFCURVE",
"141 178 CURVE SMOOTH",
"141 366 OFFCURVE",
"284 566 OFFCURVE",
"473 566 CURVE SMOOTH",
"615 566 OFFCURVE",
"710 409 OFFCURVE",
"710 271 CURVE SMOOTH",
"710 174 OFFCURVE",
"660 68 OFFCURVE",
"558 68 CURVE SMOOTH",
"501 68 OFFCURVE",
"467 109 OFFCURVE",
"436 172 CURVE",
"395 127 OFFCURVE",
"332 68 OFFCURVE",
"244 68 CURVE SMOOTH"
);
}
);
width = 851;
}
);
unicode = 170A;
},
{
glyphname = uni170B;
lastChange = "2017-09-13 18:20:42 +0000";
layers = (
{
layerId = UUID0;
paths = (
{
closed = 1;
nodes = (
"419 0 OFFCURVE",
"498 85 OFFCURVE",
"565 184 CURVE SMOOTH",
"600 236 OFFCURVE",
"633 293 OFFCURVE",
"734 461 CURVE SMOOTH",
"780 537 OFFCURVE",
"814 566 OFFCURVE",
"860 566 CURVE SMOOTH",
"899 566 OFFCURVE",
"929 551 OFFCURVE",
"947 506 CURVE",
"1010 533 LINE",
"984 596 OFFCURVE",
"933 634 OFFCURVE",
"864 634 CURVE SMOOTH",
"784 634 OFFCURVE",
"734 590 OFFCURVE",
"673 492 CURVE SMOOTH",
"625 415 OFFCURVE",
"607 387 OFFCURVE",
"594 368 CURVE",
"547 390 OFFCURVE",
"490 407 OFFCURVE",
"421 407 CURVE SMOOTH",
"389 407 OFFCURVE",
"332 402 OFFCURVE",
"290 389 CURVE",
"292 398 OFFCURVE",
"294 411 OFFCURVE",
"294 429 CURVE SMOOTH",
"294 495 OFFCURVE",
"256 502 OFFCURVE",
"186 502 CURVE SMOOTH",
"58 502 LINE",
"58 434 LINE",
"217 434 LINE",
"217 401 OFFCURVE",
"207 372 OFFCURVE",
"199 317 CURVE SMOOTH",
"193 278 OFFCURVE",
"190 246 OFFCURVE",
"190 198 CURVE SMOOTH",
"190 77 OFFCURVE",
"243 0 OFFCURVE",
"324 0 CURVE SMOOTH"
);
},
{
closed = 1;
nodes = (
"295 68 OFFCURVE",
"267 117 OFFCURVE",
"267 196 CURVE SMOOTH",
"267 238 OFFCURVE",
"270 282 OFFCURVE",
"277 315 CURVE",
"319 329 OFFCURVE",
"368 339 OFFCURVE",
"418 339 CURVE SMOOTH",
"464 339 OFFCURVE",
"518 328 OFFCURVE",
"559 310 CURVE",
"477 173 OFFCURVE",
"399 68 OFFCURVE",
"324 68 CURVE SMOOTH"
);
}
);
width = 1030;
}
);
unicode = 170B;
},
{
glyphname = uni170C;
lastChange = "2017-09-13 18:20:42 +0000";
layers = (
{
layerId = UUID0;
paths = (
{
closed = 1;
nodes = (
"490 0 OFFCURVE",
"618 186 OFFCURVE",
"741 401 CURVE SMOOTH",
"798 501 OFFCURVE",
"835 566 OFFCURVE",
"902 566 CURVE SMOOTH",
"949 566 OFFCURVE",
"972 534 OFFCURVE",
"972 504 CURVE SMOOTH",
"972 461 OFFCURVE",
"940 427 OFFCURVE",
"892 427 CURVE SMOOTH",
"861 427 OFFCURVE",
"836 434 OFFCURVE",
"820 442 CURVE",
"792 380 LINE",
"817 368 OFFCURVE",
"854 359 OFFCURVE",
"895 359 CURVE SMOOTH",
"1002 359 OFFCURVE",
"1044 439 OFFCURVE",
"1044 504 CURVE SMOOTH",
"1044 575 OFFCURVE",
"988 634 OFFCURVE",
"906 634 CURVE SMOOTH",
"788 634 OFFCURVE",
"750 556 OFFCURVE",
"677 433 CURVE SMOOTH",
"587 280 OFFCURVE",
"463 68 OFFCURVE",
"335 68 CURVE SMOOTH",
"286 68 OFFCURVE",
"271 103 OFFCURVE",
"271 144 CURVE SMOOTH",
"271 195 OFFCURVE",
"276 228 OFFCURVE",
"288 280 CURVE SMOOTH",
"293 302 OFFCURVE",
"301 336 OFFCURVE",
"301 364 CURVE SMOOTH",
"301 416 OFFCURVE",
"275 442 OFFCURVE",
"199 442 CURVE SMOOTH",
"58 442 LINE",
"58 374 LINE",
"224 374 LINE",
"224 353 OFFCURVE",
"223 334 OFFCURVE",
"218 311 CURVE SMOOTH",
"208 264 OFFCURVE",
"194 197 OFFCURVE",
"194 151 CURVE SMOOTH",
"194 66 OFFCURVE",
"230 0 OFFCURVE",
"331 0 CURVE SMOOTH"
);
}
);
width = 1029;
}
);
unicode = 170C;
},
{
glyphname = uni170E;
lastChange = "2017-09-13 18:20:42 +0000";
layers = (
{
layerId = UUID0;
paths = (
{
closed = 1;
nodes = (
"465 34 OFFCURVE",
"495 59 OFFCURVE",
"524 78 CURVE SMOOTH",
"559 101 OFFCURVE",
"578 121 OFFCURVE",
"578 150 CURVE SMOOTH",
"578 182 OFFCURVE",
"543 193 OFFCURVE",
"508 208 CURVE SMOOTH",
"494 214 OFFCURVE",
"480 219 OFFCURVE",
"480 223 CURVE SMOOTH",
"480 226 OFFCURVE",
"483 231 OFFCURVE",
"501 242 CURVE SMOOTH",
"529 259 OFFCURVE",
"568 279 OFFCURVE",
"568 306 CURVE SMOOTH",
"568 333 OFFCURVE",
"548 349 OFFCURVE",
"510 364 CURVE SMOOTH",
"482 375 OFFCURVE",
"466 383 OFFCURVE",
"466 405 CURVE SMOOTH",
"466 490 OFFCURVE",
"549 568 OFFCURVE",
"691 568 CURVE SMOOTH",
"750 568 OFFCURVE",
"793 553 OFFCURVE",
"846 525 CURVE",
"877 586 LINE",
"815 619 OFFCURVE",
"761 636 OFFCURVE",
"687 636 CURVE SMOOTH",
"620 636 OFFCURVE",
"542 616 OFFCURVE",
"438 561 CURVE SMOOTH",
"370 525 OFFCURVE",
"288 491 OFFCURVE",
"232 491 CURVE SMOOTH",
"165 491 OFFCURVE",
"118 519 OFFCURVE",
"73 562 CURVE",
"28 508 LINE",
"89 456 OFFCURVE",
"143 423 OFFCURVE",
"230 423 CURVE SMOOTH",
"298 423 OFFCURVE",
"361 448 OFFCURVE",
"414 473 CURVE",
"401 450 OFFCURVE",
"393 418 OFFCURVE",
"393 391 CURVE SMOOTH",
"393 351 OFFCURVE",
"419 327 OFFCURVE",
"458 312 CURVE SMOOTH",
"470 307 OFFCURVE",
"476 305 OFFCURVE",
"476 301 CURVE SMOOTH",
"476 297 OFFCURVE",
"461 291 OFFCURVE",
"447 284 CURVE SMOOTH",
"435 278 OFFCURVE",
"399 259 OFFCURVE",
"399 220 CURVE SMOOTH",
"399 176 OFFCURVE",
"436 168 OFFCURVE",
"470 154 CURVE SMOOTH",
"482 149 OFFCURVE",
"488 147 OFFCURVE",
"488 143 CURVE SMOOTH",
"488 140 OFFCURVE",
"483 136 OFFCURVE",
"478 133 CURVE SMOOTH",
"444 112 OFFCURVE",
"407 80 OFFCURVE",
"375 23 CURVE",
"437 -10 LINE"
);
}
);
width = 913;
}
);
unicode = 170E;
},
{
glyphname = uni170F;
lastChange = "2017-09-13 18:20:42 +0000";
layers = (
{
layerId = UUID0;
paths = (
{
closed = 1;
nodes = (
"535 0 OFFCURVE",
"713 263 OFFCURVE",
"713 469 CURVE SMOOTH",
"713 614 OFFCURVE",
"631 674 OFFCURVE",
"519 674 CURVE SMOOTH",
"431 674 OFFCURVE",
"370 637 OFFCURVE",
"327 582 CURVE",
"378 538 LINE",
"411 580 OFFCURVE",
"459 606 OFFCURVE",
"514 606 CURVE SMOOTH",
"600 606 OFFCURVE",
"636 552 OFFCURVE",
"636 471 CURVE SMOOTH",
"636 300 OFFCURVE",
"490 68 OFFCURVE",
"357 68 CURVE SMOOTH",
"301 68 OFFCURVE",
"271 95 OFFCURVE",
"271 159 CURVE SMOOTH",
"271 240 OFFCURVE",
"301 305 OFFCURVE",
"301 364 CURVE SMOOTH",
"301 416 OFFCURVE",
"275 442 OFFCURVE",
"199 442 CURVE SMOOTH",
"58 442 LINE",
"58 374 LINE",
"224 374 LINE",
"224 353 OFFCURVE",
"223 334 OFFCURVE",
"218 311 CURVE SMOOTH",
"208 264 OFFCURVE",
"194 198 OFFCURVE",
"194 152 CURVE SMOOTH",
"194 59 OFFCURVE",
"248 0 OFFCURVE",
"351 0 CURVE SMOOTH"
);
}
);
width = 761;
}
);
unicode = 170F;
},
{
glyphname = uni1710;
lastChange = "2017-09-13 18:20:42 +0000";
layers = (
{
layerId = UUID0;
paths = (
{
closed = 1;
nodes = (
"553 -10 LINE SMOOTH",
"779 -10 OFFCURVE",
"874 64 OFFCURVE",
"874 192 CURVE SMOOTH",
"874 262 OFFCURVE",
"828 320 OFFCURVE",
"767 337 CURVE",
"833 367 OFFCURVE",
"855 419 OFFCURVE",
"855 482 CURVE SMOOTH",
"855 572 OFFCURVE",
"789 634 OFFCURVE",
"682 634 CURVE SMOOTH",
"571 634 OFFCURVE",
"491 570 OFFCURVE",
"422 463 CURVE SMOOTH",
"366 376 OFFCURVE",
"316 283 OFFCURVE",
"252 151 CURVE",
"250 151 LINE",
"248 550 LINE SMOOTH",
"248 606 OFFCURVE",
"240 634 OFFCURVE",
"147 634 CURVE SMOOTH",
"19 634 LINE",
"19 566 LINE",
"171 566 LINE",
"173 0 LINE",
"240 0 LINE",
"337 165 OFFCURVE",
"410 315 OFFCURVE",
"490 435 CURVE SMOOTH",
"542 513 OFFCURVE",
"604 566 OFFCURVE",
"674 566 CURVE SMOOTH",
"747 566 OFFCURVE",
"778 524 OFFCURVE",
"778 472 CURVE SMOOTH",
"778 416 OFFCURVE",
"735 360 OFFCURVE",
"631 360 CURVE SMOOTH",
"585 360 LINE",
"585 292 LINE",
"659 292 LINE SMOOTH",
"775 292 OFFCURVE",
"797 230 OFFCURVE",
"797 192 CURVE SMOOTH",
"797 92 OFFCURVE",
"697 58 OFFCURVE",
"544 58 CURVE SMOOTH",
"512 58 LINE",
"512 -10 LINE"
);
}
);
width = 922;
}
);
unicode = 1710;
},
{
glyphname = uni1711;
lastChange = "2017-09-13 18:20:42 +0000";
layers = (
{
layerId = UUID0;
paths = (
{
closed = 1;
nodes = (
"391 236 OFFCURVE",
"485 262 OFFCURVE",
"551 283 CURVE SMOOTH",
"603 299 OFFCURVE",
"670 322 OFFCURVE",
"732 322 CURVE SMOOTH",
"831 322 OFFCURVE",
"887 295 OFFCURVE",
"956 244 CURVE",
"998 298 LINE",
"916 358 OFFCURVE",
"843 390 OFFCURVE",
"745 390 CURVE SMOOTH",
"665 390 OFFCURVE",
"590 367 OFFCURVE",
"530 348 CURVE SMOOTH",
"471 329 OFFCURVE",
"388 304 OFFCURVE",
"305 304 CURVE SMOOTH",
"221 304 OFFCURVE",
"170 327 OFFCURVE",
"90 384 CURVE",
"52 328 LINE",
"133 268 OFFCURVE",
"206 236 OFFCURVE",
"303 236 CURVE SMOOTH"
);
}
);
width = 1049;
}
);
unicode = 1711;
},
{
glyphname = uni1712;
lastChange = "2017-09-13 18:20:42 +0000";
layers = (
{
layerId = UUID0;
paths = (
{
closed = 1;
nodes = (
"-141 703 OFFCURVE",
"-117 721 OFFCURVE",
"-117 759 CURVE SMOOTH",
"-117 798 OFFCURVE",
"-141 815 OFFCURVE",
"-168 815 CURVE SMOOTH",
"-197 815 OFFCURVE",
"-220 798 OFFCURVE",
"-220 759 CURVE SMOOTH",
"-220 721 OFFCURVE",
"-197 703 OFFCURVE",
"-168 703 CURVE SMOOTH"
);
}
);
width = 0;
}
);
unicode = 1712;
},
{
glyphname = uni1713;
lastChange = "2017-09-13 18:20:42 +0000";
layers = (
{
layerId = UUID0;
paths = (
{
closed = 1;
nodes = (
"-71 -138 OFFCURVE",
"-47 -120 OFFCURVE",
"-47 -82 CURVE SMOOTH",
"-47 -43 OFFCURVE",
"-71 -26 OFFCURVE",
"-98 -26 CURVE SMOOTH",
"-127 -26 OFFCURVE",
"-150 -43 OFFCURVE",
"-150 -82 CURVE SMOOTH",
"-150 -120 OFFCURVE",
"-127 -138 OFFCURVE",
"-98 -138 CURVE SMOOTH"
);
}
);
width = 0;
}
);
unicode = 1713;
},
{
glyphname = uni1714;
lastChange = "2017-09-13 18:20:42 +0000";
layers = (
{
layerId = UUID0;
paths = (
{
closed = 1;
nodes = (
"-238 -155 LINE",
"-238 -106 LINE",
"-189 -106 LINE",
"-189 -56 LINE",
"-238 -56 LINE",
"-238 -6 LINE",
"-288 -6 LINE",
"-288 -56 LINE",
"-338 -56 LINE",
"-338 -106 LINE",
"-288 -106 LINE",
"-288 -155 LINE"
);
}
);
width = 0;
}
);
unicode = 1714;
},
{
glyphname = uni1735;
lastChange = "2017-09-13 18:20:42 +0000";
layers = (
{
layerId = UUID0;
paths = (
{
closed = 1;
nodes = (
"87 -139 LINE",
"292 750 LINE",
"222 750 LINE",
"18 -139 LINE"
);
}
);
width = 329;
}
);
unicode = 1735;
},
{
glyphname = uni1736;
lastChange = "2017-09-13 18:20:42 +0000";
layers = (
{
layerId = UUID0;
paths = (
{
closed = 1;
nodes = (
"87 -139 LINE",
"292 750 LINE",
"222 750 LINE",
"18 -139 LINE"
);
},
{
closed = 1;
nodes = (
"246 -139 LINE",
"451 750 LINE",
"381 750 LINE",
"177 -139 LINE"
);
}
);
width = 488;
}
);
unicode = 1736;
},
{
glyphname = uni25CC;
lastChange = "2017-09-13 18:20:42 +0000";
layers = (
{
layerId = UUID0;
paths = (
{
closed = 1;
nodes = (
"480 466 OFFCURVE",
"472 475 OFFCURVE",
"455 475 CURVE SMOOTH",
"437 475 OFFCURVE",
"428 466 OFFCURVE",
"428 448 CURVE SMOOTH",
"428 431 OFFCURVE",
"437 422 OFFCURVE",
"455 422 CURVE SMOOTH",
"472 422 OFFCURVE",
"480 431 OFFCURVE",
"480 448 CURVE SMOOTH"
);
},
{
closed = 1;
nodes = (
"408 514 OFFCURVE",
"400 523 OFFCURVE",
"383 523 CURVE SMOOTH",
"364 523 OFFCURVE",
"355 514 OFFCURVE",
"355 496 CURVE SMOOTH",
"355 479 OFFCURVE",
"364 470 OFFCURVE",
"383 470 CURVE SMOOTH",
"400 470 OFFCURVE",
"408 479 OFFCURVE",
"408 496 CURVE SMOOTH"
);
},
{
closed = 1;
nodes = (
"529 393 OFFCURVE",
"520 402 OFFCURVE",
"503 402 CURVE SMOOTH",
"485 402 OFFCURVE",
"476 393 OFFCURVE",
"476 376 CURVE SMOOTH",
"476 358 OFFCURVE",
"485 349 OFFCURVE",
"502 349 CURVE SMOOTH",
"520 349 OFFCURVE",
"529 358 OFFCURVE",
"529 376 CURVE SMOOTH"
);
},
{
closed = 1;
nodes = (
"546 308 OFFCURVE",
"538 317 OFFCURVE",
"521 317 CURVE SMOOTH",
"503 317 OFFCURVE",
"494 308 OFFCURVE",
"494 291 CURVE SMOOTH",
"494 274 OFFCURVE",
"503 265 OFFCURVE",
"521 265 CURVE SMOOTH",
"538 265 OFFCURVE",
"546 274 OFFCURVE",
"546 291 CURVE SMOOTH"
);
},
{
closed = 1;
nodes = (
"323 531 OFFCURVE",
"314 540 OFFCURVE",
"297 540 CURVE SMOOTH",
"280 540 OFFCURVE",
"271 531 OFFCURVE",
"271 514 CURVE SMOOTH",
"271 496 OFFCURVE",
"280 487 OFFCURVE",
"297 487 CURVE SMOOTH",
"314 487 OFFCURVE",
"323 496 OFFCURVE",
"323 514 CURVE SMOOTH"
);
},
{
closed = 1;
nodes = (
"239 514 OFFCURVE",
"230 523 OFFCURVE",
"212 523 CURVE SMOOTH",
"195 523 OFFCURVE",
"186 514 OFFCURVE",
"186 496 CURVE SMOOTH",
"186 479 OFFCURVE",
"195 470 OFFCURVE",
"212 470 CURVE SMOOTH",
"230 470 OFFCURVE",
"239 479 OFFCURVE",
"239 496 CURVE SMOOTH"
);
},
{
closed = 1;
nodes = (
"529 224 OFFCURVE",
"520 233 OFFCURVE",
"502 233 CURVE SMOOTH",
"485 233 OFFCURVE",
"476 224 OFFCURVE",
"476 206 CURVE SMOOTH",
"476 189 OFFCURVE",
"485 180 OFFCURVE",
"502 180 CURVE SMOOTH",
"520 180 OFFCURVE",
"529 189 OFFCURVE",
"529 206 CURVE SMOOTH"
);
},
{
closed = 1;
nodes = (
"167 466 OFFCURVE",
"158 475 OFFCURVE",
"140 475 CURVE SMOOTH",
"123 475 OFFCURVE",
"114 466 OFFCURVE",
"114 447 CURVE SMOOTH",
"114 430 OFFCURVE",
"123 422 OFFCURVE",
"140 422 CURVE SMOOTH",
"158 422 OFFCURVE",
"167 431 OFFCURVE",
"167 448 CURVE SMOOTH"
);
},
{
closed = 1;
nodes = (
"480 151 OFFCURVE",
"472 160 OFFCURVE",
"455 160 CURVE SMOOTH",
"437 160 OFFCURVE",
"428 151 OFFCURVE",
"428 133 CURVE SMOOTH",
"428 116 OFFCURVE",
"437 107 OFFCURVE",
"455 107 CURVE SMOOTH",
"472 107 OFFCURVE",
"480 116 OFFCURVE",
"480 133 CURVE SMOOTH"
);
},
{
closed = 1;
nodes = (
"408 103 OFFCURVE",
"400 112 OFFCURVE",
"383 112 CURVE SMOOTH",
"364 112 OFFCURVE",
"355 103 OFFCURVE",
"355 85 CURVE SMOOTH",
"355 68 OFFCURVE",
"364 60 OFFCURVE",
"383 60 CURVE SMOOTH",
"400 60 OFFCURVE",
"408 68 OFFCURVE",
"408 85 CURVE SMOOTH"
);
},
{
closed = 1;
nodes = (
"118 393 OFFCURVE",
"109 402 OFFCURVE",
"92 402 CURVE SMOOTH",
"74 402 OFFCURVE",
"65 393 OFFCURVE",
"65 376 CURVE SMOOTH",
"65 358 OFFCURVE",
"74 349 OFFCURVE",
"93 349 CURVE SMOOTH",
"110 349 OFFCURVE",
"118 358 OFFCURVE",
"118 376 CURVE SMOOTH"
);
},
{
closed = 1;
nodes = (
"101 308 OFFCURVE",
"92 317 OFFCURVE",
"75 317 CURVE SMOOTH",
"57 317 OFFCURVE",
"48 308 OFFCURVE",
"48 291 CURVE SMOOTH",
"48 274 OFFCURVE",
"57 265 OFFCURVE",
"75 265 CURVE SMOOTH",
"92 265 OFFCURVE",
"101 274 OFFCURVE",
"101 291 CURVE SMOOTH"
);
},
{
closed = 1;
nodes = (
"323 86 OFFCURVE",
"314 95 OFFCURVE",
"297 95 CURVE SMOOTH",
"280 95 OFFCURVE",
"271 86 OFFCURVE",
"271 69 CURVE SMOOTH",
"271 51 OFFCURVE",
"280 42 OFFCURVE",
"297 42 CURVE SMOOTH",
"314 42 OFFCURVE",
"323 51 OFFCURVE",
"323 69 CURVE SMOOTH"
);
},
{
closed = 1;
nodes = (
"118 224 OFFCURVE",
"109 233 OFFCURVE",
"92 233 CURVE SMOOTH",
"74 233 OFFCURVE",
"65 224 OFFCURVE",
"65 206 CURVE SMOOTH",
"65 189 OFFCURVE",
"74 180 OFFCURVE",
"92 180 CURVE SMOOTH",
"109 180 OFFCURVE",
"118 189 OFFCURVE",
"118 206 CURVE SMOOTH"
);
},
{
closed = 1;
nodes = (
"239 104 OFFCURVE",
"230 112 OFFCURVE",
"212 112 CURVE SMOOTH",
"195 112 OFFCURVE",
"186 103 OFFCURVE",
"186 85 CURVE SMOOTH",
"186 68 OFFCURVE",
"195 60 OFFCURVE",
"212 60 CURVE SMOOTH",
"230 60 OFFCURVE",
"239 69 OFFCURVE",
"239 87 CURVE SMOOTH"
);
},
{
closed = 1;
nodes = (
"167 151 OFFCURVE",
"158 160 OFFCURVE",
"140 160 CURVE SMOOTH",
"123 160 OFFCURVE",
"114 151 OFFCURVE",
"114 133 CURVE SMOOTH",
"114 116 OFFCURVE",
"123 107 OFFCURVE",
"140 107 CURVE SMOOTH",
"158 107 OFFCURVE",
"167 116 OFFCURVE",
"167 133 CURVE SMOOTH"
);
}
